{
  "accessors": [
    {
      "bufferView": 2,
      "componentType": 5126,
      "count": 198,
      "max": [
        0.11674799770116806,
        0.86032199859619141,
        0.1949940025806427
      ],
      "min": [
        -0.010589700192213058,
        0.8050839900970459,
        0.17280399799346924
      ],
      "type": "VEC3"
    },
    {
      "bufferView": 2,
      "byteOffset": 2376,
      "componentType": 5126,
      "count": 198,
      "max": [
        0.14519591629505157,
        0.38464376330375671,
        0.92034655809402466
      ],
      "min": [
        -0.14519302546977997,
        -0.38464498519897461,
        -0.92034721374511719
      ],
      "type": "VEC3"
    },
    {
      "bufferView": 3,
      "componentType": 5126,
      "count": 198,
      "max": [
        0.42883729934692383,
        0.85585540533065796,
        0.28951561450958252,
        1
      ],
      "min": [
        -0.72896367311477661,
        -0.89402604103088379,
        -0.32452318072319031,
        1
      ],
      "type": "VEC4"
    },
    {
      "bufferView": 1,
      "componentType": 5126,
      "count": 198,
      "max": [
        0.95145499706268311,
        0.99950098991394043
      ],
      "min": [
        0.00047500000800937414,
        0.00049900001613423228
      ],
      "type": "VEC2"
    },
    {
      "bufferView": 0,
      "componentType": 5125,
      "count": 240,
      "max": [
        197
      ],
      "min": [
        0
      ],
      "type": "SCALAR"
    },
    {
      "bufferView": 2,
      "byteOffset": 4752,
      "componentType": 5126,
      "count": 3477,
      "max": [
        0.44297000765800476,
        1,
        0.45419999957084656
      ],
      "min": [
        -0.44297000765800476,
        -1,
        -0.45419999957084656
      ],
      "type": "VEC3"
    },
    {
      "bufferView": 2,
      "byteOffset": 46476,
      "componentType": 5126,
      "count": 3477,
      "max": [
        1,
        0.99969065189361572,
        0.9999079704284668
      ],
      "min": [
        -1,
        -0.99948149919509888,
        -0.9974246621131897
      ],
      "type": "VEC3"
    },
    {
      "bufferView": 3,
      "byteOffset": 3168,
      "componentType": 5126,
      "count": 3477,
      "max": [
        1,
        0.99991923570632935,
        0.99712824821472168,
        1
      ],
      "min": [
        -0.99999868869781494,
        -0.99996203184127808,
        -0.99996829032897949,
        -1
      ],
      "type": "VEC4"
    },
    {
      "bufferView": 1,
      "byteOffset": 1584,
      "componentType": 5126,
      "count": 3477,
      "max": [
        0.99808800220489502,
        0.99592000246047974
      ],
      "min": [
        0.0066700000315904617,
        0.0027399999089539051
      ],
      "type": "VEC2"
    },
    {
      "bufferView": 0,
      "byteOffset": 960,
      "componentType": 5125,
      "count": 14418,
      "max": [
        3476
      ],
      "min": [
        0
      ],
      "type": "SCALAR"
    }
  ],
  "asset": {
    "extras": {
      "author": "infivr (https://sketchfab.com/infivr)",
      "license": "CC-BY-4.0 (http://creativecommons.org/licenses/by/4.0/)",
      "source": "https://sketchfab.com/models/6e60afc9becc4dcf980ad4e3ac3751ff",
      "title": "mahtma gandhi"
    },
    "generator": "Sketchfab-3.32.5",
    "version": "2.0"
  },
  "bufferViews": [
    {
      "buffer": 0,
      "byteLength": 58632,
      "byteOffset": 0,
      "name": "floatBufferViews",
      "target": 34963
    },
    {
      "buffer": 0,
      "byteLength": 29400,
      "byteOffset": 58632,
      "byteStride": 8,
      "name": "floatBufferViews",
      "target": 34962
    },
    {
      "buffer": 0,
      "byteLength": 88200,
      "byteOffset": 88032,
      "byteStride": 12,
      "name": "floatBufferViews",
      "target": 34962
    },
    {
      "buffer": 0,
      "byteLength": 58800,
      "byteOffset": 176232,
      "byteStride": 16,
      "name": "floatBufferViews",
      "target": 34962
    }
  ],
  "buffers": [
    {
      "byteLength": 235032,
      "uri": "scene.bin"
    }
  ],
  "images": [
    {
      "uri": "textures/blinn2SG_normal.png"
    },
    {
      "uri": "textures/blinn2SG_baseColor.jpeg"
    },
    {
      "uri": "textures/blinn2SG_metallicRoughness.png"
    },
    {
      "uri": "textures/blinn3SG_normal.png"
    },
    {
      "uri": "textures/blinn3SG_baseColor.png"
    },
    {
      "uri": "textures/blinn3SG_metallicRoughness.png"
    }
  ],
  "materials": [
    {
      "alphaMode": "BLEND",
      "doubleSided": true,
      "emissiveFactor": [
        0,
        0,
        0
      ],
      "name": "blinn3SG",
      "normalTexture": {
        "index": 3,
        "scale": 1,
        "texCoord": 0
      },
      "occlusionTexture": {
        "index": 5,
        "strength": 1,
        "texCoord": 0
      },
      "pbrMetallicRoughness": {
        "baseColorFactor": [
          1,
          1,
          1,
          1
        ],
        "baseColorTexture": {
          "index": 4,
          "texCoord": 0
        },
        "metallicFactor": 1,
        "metallicRoughnessTexture": {
          "index": 5,
          "texCoord": 0
        },
        "roughnessFactor": 1
      }
    },
    {
      "doubleSided": true,
      "emissiveFactor": [
        0,
        0,
        0
      ],
      "name": "blinn2SG",
      "normalTexture": {
        "index": 0,
        "scale": 1,
        "texCoord": 0
      },
      "occlusionTexture": {
        "index": 2,
        "strength": 1,
        "texCoord": 0
      },
      "pbrMetallicRoughness": {
        "baseColorFactor": [
          1,
          1,
          1,
          1
        ],
        "baseColorTexture": {
          "index": 1,
          "texCoord": 0
        },
        "metallicFactor": 1,
        "metallicRoughnessTexture": {
          "index": 2,
          "texCoord": 0
        },
        "roughnessFactor": 1
      }
    }
  ],
  "meshes": [
    {
      "name": "defaultMaterial",
      "primitives": [
        {
          "attributes": {
            "NORMAL": 1,
            "POSITION": 0,
            "TANGENT": 2,
            "TEXCOORD_0": 3
          },
          "indices": 4,
          "material": 0,
          "mode": 4
        }
      ]
    },
    {
      "name": "defaultMaterial",
      "primitives": [
        {
          "attributes": {
            "NORMAL": 6,
            "POSITION": 5,
            "TANGENT": 7,
            "TEXCOORD_0": 8
          },
          "indices": 9,
          "material": 1,
          "mode": 4
        }
      ]
    }
  ],
  "nodes": [
    {
      "children": [
        1
      ],
      "name": "RootNode (gltf orientation matrix)",
      "rotation": [
        -0.70710678118654746,
        -0,
        -0,
        0.70710678118654757
      ]
    },
    {
      "children": [
        2
      ],
      "name": "RootNode (model correction matrix)"
    },
    {
      "children": [
        3
      ],
      "matrix": [
        1,
        0,
        0,
        0,
        0,
        -4.3711390063094768e-08,
        0.999999999999999,
        0,
        0,
        -0.999999999999999,
        -4.3711390063094768e-08,
        0,
        0,
        0,
        0,
        1
      ],
      "name": "Collada visual scene group"
    },
    {
      "children": [
        4,
        5
      ],
      "name": "g"
    },
    {
      "mesh": 0,
      "name": "defaultMaterial"
    },
    {
      "mesh": 1,
      "name": "defaultMaterial"
    }
  ],
  "samplers": [
    {
      "magFilter": 9729,
      "minFilter": 9987,
      "wrapS": 10497,
      "wrapT": 10497
    }
  ],
  "scene": 0,
  "scenes": [
    {
      "name": "OSG_Scene",
      "nodes": [
        0
      ]
    }
  ],
  "textures": [
    {
      "sampler": 0,
      "source": 0
    },
    {
      "sampler": 0,
      "source": 1
    },
    {
      "sampler": 0,
      "source": 2
    },
    {
      "sampler": 0,
      "source": 3
    },
    {
      "sampler": 0,
      "source": 4
    },
    {
      "sampler": 0,
      "source": 5
    }
  ]
}

